<svg width="96" height="96" viewBox="0 0 96 96" fill="none" xmlns="http://www.w3.org/2000/svg">
<path d="M34 56V47L39 52L44 47V55.9634L48 56V40.0351H44L39 45.5L34 40H30V56H34Z" fill="#70BD23"/>
<path d="M66 47.9992H61V40.0351H56V47.9992L51 48L58.5 56L66 47.9992Z" fill="#70BD23"/>
<path d="M31.3803 18.9991C47.6204 10.1354 67.9711 16.1152 76.8348 32.3553C81.4144 40.7461 82.0316 50.2343 79.3184 58.6684" stroke="#70BD23" stroke-width="6" stroke-linecap="round"/>
<path d="M64.6197 77.0009C48.3796 85.8646 28.0289 79.8848 19.1652 63.6447C14.5856 55.2539 13.9684 45.7657 16.6816 37.3316" stroke="#333333" stroke-width="6" stroke-linecap="round"/>
<path d="M16.5324 28.738C16.3009 29.6821 17.015 30.594 17.9871 30.5956L29.1309 30.6133C30.3825 30.6153 31.0859 29.1737 30.3142 28.1882L21.8244 17.3474C21.0527 16.362 19.4845 16.6992 19.1864 17.9149L16.5324 28.738Z" fill="#70BD23" stroke="#70BD23"/>
<path d="M79.9532 67.3807C80.2618 66.1219 79.31 64.9065 78.0139 64.9044L66.8698 64.8866C65.201 64.8839 64.263 66.8058 65.292 68.1197L73.7822 78.961C74.8111 80.2749 76.9018 79.825 77.2992 78.2042L79.9532 67.3807Z" fill="#333333"/>
</svg>
